inDegrees=no
num_controls=7
num_derivatives=13
num_iterations=169
num_multipliers=7
num_parameters=0
num_slacks=7
num_states=26
objective=0.509853
objective_accelerations=0.040182
objective_balance=0.003514
objective_effort=0.029072
objective_height=0.324282
objective_ligament=0.112803
solver_duration=2132.383184
status=Solve_Succeeded
success=true
DataType=double
version=3
OpenSimVersion=4.5
endheader
time	/jointset/ground_pelvis/pelvis_tilt/value	/jointset/ground_pelvis/pelvis_tx/value	/jointset/ground_pelvis/pelvis_ty/value	/jointset/hip_l/hip_flexion_l/value	/jointset/hip_l/hip_adduction_l/value	/jointset/hip_l/hip_rotation_l/value	/jointset/back/lumbar_extension/value	/jointset/patellofemoral_l/patellar_flexion_l/value	/jointset/knee_l/knee_flexion_l/value	/jointset/knee_l/knee_adduction_l/value	/jointset/knee_l/knee_rotation_l/value	/jointset/ankle_l/ankle_angle_l/value	/jointset/subtalar_l/subtalar_angle_l/value	/jointset/ground_pelvis/pelvis_tilt/speed	/jointset/ground_pelvis/pelvis_tx/speed	/jointset/ground_pelvis/pelvis_ty/speed	/jointset/hip_l/hip_flexion_l/speed	/jointset/hip_l/hip_adduction_l/speed	/jointset/hip_l/hip_rotation_l/speed	/jointset/back/lumbar_extension/speed	/jointset/patellofemoral_l/patellar_flexion_l/speed	/jointset/knee_l/knee_flexion_l/speed	/jointset/knee_l/knee_adduction_l/speed	/jointset/knee_l/knee_rotation_l/speed	/jointset/ankle_l/ankle_angle_l/speed	/jointset/subtalar_l/subtalar_angle_l/speed	/forceset/tau_hip_flexion_l	/forceset/tau_hip_adduction_l	/forceset/tau_hip_rotation_l	/forceset/tau_knee_flexion_l	/forceset/tau_ankle_angle_l	/forceset/tau_subtalar_angle_l	/forceset/tau_lumbar_extension	lambda_cid13_p0	lambda_cid13_p1	lambda_cid13_p2	lambda_cid13_p3	lambda_cid13_p4	lambda_cid13_p5	lambda_cid14_p0	/jointset/ground_pelvis/pelvis_tilt/accel	/jointset/ground_pelvis/pelvis_tx/accel	/jointset/ground_pelvis/pelvis_ty/accel	/jointset/hip_l/hip_flexion_l/accel	/jointset/hip_l/hip_adduction_l/accel	/jointset/hip_l/hip_rotation_l/accel	/jointset/back/lumbar_extension/accel	/jointset/patellofemoral_l/patellar_flexion_l/accel	/jointset/knee_l/knee_flexion_l/accel	/jointset/knee_l/knee_adduction_l/accel	/jointset/knee_l/knee_rotation_l/accel	/jointset/ankle_l/ankle_angle_l/accel	/jointset/subtalar_l/subtalar_angle_l/accel	gamma_cid13_p0	gamma_cid13_p1	gamma_cid13_p2	gamma_cid13_p3	gamma_cid13_p4	gamma_cid13_p5	gamma_cid14_p0
1	-0.1449604958459648	-0.06817131774531048	0.7312960856538737	1.220858250197742	-0.3316541928887896	0.01199611369862782	-0.9599310885968813	1.187869881409942	1.187869881409455	-0.08934679378551599	-0.1743819417603007	0.1931814573385072	0.02606441679385068	0.1186887420293171	0.02081384061593998	0.07664409970649462	-0.3298904506203745	0.003918661415783706	-0.08161498975675577	0.001005001398676934	-0.2097264122300105	-0.2097264122300165	0.007210142593400849	0.006790261096879636	-0.00924178451238287	0.002535217424794932	-0.3972504238850813	0.05233622027174472	-0.004415550818975198	-0.2801449881267698	0.0367344439059081	0.02505544454480116	0.4340999654595803	-38.60651377417538	-3.655669340507625	-0.4039941254105591	15.46141333925813	-785.6227303741626	-49.87915555021426	-1.28257648153447	1.103768016798819	0.02914546554617771	1.255765759393678	-4.592218150438478	0.1417775264816346	-1.719024715834862	0.1788187850174801	-4.376024283682523	-4.376024283682439	0.2329909623595828	0.1391042252503417	-1.136673404024765	-0.2353806491611611	-1.364214307078027e-08	-1.876132071810373e-08	7.726650239059232e-08	5.40057103032439e-09	-2.553158626287419e-08	6.060724390505045e-08	-1.740001870313999e-08
1.01	-0.1437194634202597	-0.06796159237685193	0.7321249465324948	1.217331510437756	-0.3316072810810816	0.01109370885014946	-0.9599100729905473	1.185554591888434	1.185554591888244	-0.08926159417477811	-0.1743065381764003	0.1930325064227866	0.02607888951998376	0.1294567106185269	0.02114587984029431	0.08910259049866667	-0.3753593867106568	0.005468279530400917	-0.0988499931228872	0.003347894550495867	-0.2532892181488628	-0.2532892181488755	0.009828962626602144	0.008276864933013163	-0.02053969576544098	0.0003678203423096043	-0.3968641672091939	0.05251394217667388	-0.004464047671717103	-0.2796023858819836	0.03680363910297984	0.02519492822108746	0.4343217102315918	-38.55299590780503	-3.738836857221265	-0.3756354191764798	15.14463568343862	-785.4094630333211	-49.95235064015665	-1.323272122211576	1.054154624465851	0.03743196979352057	1.237062011039088	-4.509516642259505	0.1622331846892207	-1.72335968147651	0.2844377360664848	-4.340063312929161	-4.340063312930202	0.2761945484938845	0.1514210376738792	-1.12504553059787	-0.2061521538675486	-1.865297570212684e-08	-2.819703211179303e-08	9.657127565560145e-08	8.984502909524428e-09	-2.946154695816286e-08	6.585912620022084e-08	-2.168004198362656e-08
1.02	-0.1423725826397662	-0.06774810685236714	0.7330776265734196	1.213353024256077	-0.3315447372460801	0.01001942966111559	-0.9598611440533172	1.182804943394351	1.182804943394458	-0.0891502329587729	-0.174216672039161	0.1927708372856052	0.02607194169207696	0.1398584129870882	0.02156587182118366	0.1014079321672438	-0.4202397349583967	0.007045066874515179	-0.1159898578679868	0.006587313934410692	-0.2965982067454183	-0.2965982067454379	0.01244246364754199	0.009682771764306049	-0.03178542880456027	-0.001748893383189545	-0.3964779105333125	0.05269166408160376	-0.004512544524493734	-0.2790597836371976	0.03687283430005298	0.02533441189737569	0.4345434550035978	-38.51145793629504	-3.819052629825785	-0.3487230734155154	14.88206236817383	-785.3518283383402	-50.0164919152988	-1.372346565712051	1.030514772669077	0.04673601685321404	1.225135934674709	-4.474500581930002	0.1472113723810319	-1.699996991628519	0.3581240314366323	-4.325260819223128	-4.325260819223112	0.2319271599072964	0.1229648242821848	-1.126237761236951	-0.2252439777639213	-2.383818919568841e-08	-3.699529419773553e-08	1.121005709314404e-07	1.39586387435553e-08	-3.641126377539942e-08	6.788445980586884e-08	-2.489733209539663e-08
1.03	-0.1409233566184132	-0.06752986312550589	0.7341526892709568	1.208928160809756	-0.3314662391183986	0.00877427965854125	-0.9597750549375804	1.17962322180922	1.179623221809215	-0.08901284035349767	-0.1741130610540254	0.1923970823637173	0.02604418404526065	0.1499406898378642	0.02210948396612935	0.1135885569608836	-0.4646858148531283	0.008664789328999186	-0.1330224970409663	0.01080986530309901	-0.3397296402870978	-0.3397296402870866	0.01503126737353077	0.01103451204237342	-0.04294590123189199	-0.003783043246069664	-0.3965267179350532	0.05295645957508314	-0.004575333252725368	-0.2784621982064563	0.0372149681942454	0.02552825761089325	0.4353677024748722	-38.39613732017814	-3.94007815095351	-0.3104138999136083	14.36343912059682	-785.6850034761179	-50.1283575298141	-1.43017138233321	0.9901669912340542	0.06216919529420673	1.212109474164871	-4.422593880498485	0.1708767881244825	-1.702276532544537	0.481224103051309	-4.304608482383022	-4.304608482378412	0.2716243862940922	0.140569250536067	-1.108006069181173	-0.1895691129278904	-2.902518208580319e-08	-4.578705169890509e-08	1.275913409216756e-07	1.894696033222732e-08	-4.339179443061506e-08	6.987686944529718e-08	-2.810377799115938e-08
1.04	-0.1393746912585623	-0.06730538420079943	0.7353490749609215	1.204060250127034	-0.3313712389449441	0.007359327433755959	-0.9596413596254628	1.176010681116524	1.176010681116408	-0.08884970622949549	-0.1739960745419145	0.1919123119004161	0.02599667117534003	0.1597462806867276	0.02281291139022735	0.1256725306527745	-0.5088491822380118	0.01034547602917761	-0.1499503023104196	0.01610855321044328	-0.3827620282584843	-0.3827620282584422	0.01759076739349577	0.01235787715912172	-0.05398853708721892	-0.005699938004063549	-0.3965755253368007	0.05322125506856418	-0.004638121980989715	-0.2778646127757152	0.03755710208843976	0.02572210332441409	0.4361919499461401	-38.29289156990026	-4.058228413801576	-0.2734325313250658	13.89755249831043	-786.176080218433	-50.23230126562846	-1.49716533699109	0.9751775722865228	0.07869907268370847	1.205805714324917	-4.417958079960393	0.159404221519903	-1.67903021092331	0.5733513391678058	-4.305451705164517	-4.305451705164494	0.2260664187025433	0.1172897920183447	-1.102670446835938	-0.2017929567866692	-3.211294581807861e-08	-5.584072341859802e-08	1.40937183725809e-07	1.95508236865886e-08	-4.746755119126009e-08	7.000157637771198e-08	-3.115554770912284e-08
1.05	-0.1377293422406228	-0.0670730830888132	0.7366657611285512	1.198752227077386	-0.3312591313265131	0.005775696412156976	-0.9594493812689566	1.17196837197928	1.171968371979242	-0.08866120221003283	-0.1738660531799537	0.1913176443216336	0.0259305463007832	0.1692767033458792	0.02367283835247855	0.1376428478592255	-0.5526954739623856	0.01208782716710609	-0.166755544561934	0.02246043736109721	-0.425677301569137	-0.4256773015691318	0.02010444891379486	0.01363719192482495	-0.06493090486004947	-0.007505743884574968	-0.3962954672854782	0.05353427372377217	-0.004717202818363844	-0.2770255701170554	0.03788334482884991	0.02594667790896912	0.4367196910120415	-38.16695441051692	-4.197612087819881	-0.2285942492196282	13.42555774372352	-786.2406323597465	-50.35275945383725	-1.573832865019838	0.934949296392445	0.09347261816071908	1.189356140970796	-4.358975381486818	0.1834046883252366	-1.678249615125036	0.6921048435142181	-4.281183629574645	-4.281183629580207	0.2631631236888402	0.1319048158931568	-1.087911858679629	-0.1670878695015005	-3.513510863917156e-08	-6.59338299576198e-08	1.542159975553768e-07	2.001767272112768e-08	-5.145253376769981e-08	7.006791760053263e-08	-3.420248379653007e-08
1.06	-0.1359900940593594	-0.06683141608517151	0.7381014927516786	1.193007538977931	-0.3311292493710237	0.004024617291472531	-0.9591886844928436	1.167497586411819	1.167497586411858	-0.08844773255437066	-0.1737235081709255	0.1906139746818882	0.02584694067425768	0.1785261133515494	0.02468608972131742	0.1494816217523028	-0.5961821921991988	0.01390034344086953	-0.183439922127828	0.02985223713175344	-0.46845731430215	-0.4684573143021826	0.02258389463390314	0.01486260657240099	-0.07578894927980023	-0.009196088397811593	-0.3960154092341583	0.05384729237898298	-0.004796283655769122	-0.2761865274583953	0.03820958756926174	0.02617125249352869	0.4372474320779399	-38.05313277875211	-4.334243923796061	-0.1849149977003803	13.00400173897374	-786.4649752710362	-50.46691913821999	-1.660701577041621	0.9189750415901806	0.1093639540012763	1.179497051650161	-4.346043382448264	0.173437248686884	-1.654857273799226	0.7813344631682504	-4.278399589636579	-4.278399589636729	0.219219258664385	0.1065097683928805	-1.085805776219921	-0.1787006833317046	-3.807567986652985e-08	-7.485599043866084e-08	1.647551489028045e-07	2.121550061746059e-08	-5.542916675813876e-08	6.906997489454425e-08	-3.663514307069401e-08
